  <svg width="228px" height="241px" viewBox="0 0 228 241">
<g stroke="none" stroke-width="1" fill-rule="evenodd">
<rect x="33" y="0" width="16" height="13"></rect>
<rect x="171" y="0" width="18" height="13"></rect>
<rect x="208" y="0" width="20" height="13"></rect>
<rect x="137" y="0" width="18" height="13"></rect>
<rect x="103" y="0" width="14" height="13"></rect>
<rect x="65" y="0" width="19" height="13"></rect>
<rect x="0" y="0" width="18" height="13"></rect>
<path d="M0.072821384,22.2305516 C0.072821384,77.0767013 0.214579562,82.1329786 0.072821384,114.261174 C3.02396996e-12,131.38676 6.81810476,142.26145 20.4852928,157.371094 C34.4806829,172.843578 57.6389329,184.774196 66,188.363785 C77.4958129,193.299189 100.41977,192.671496 103.485838,193.117188 L103.485838,222.9375 L66.0664063,222.9375 L66.0664063,240.542969 L152.695313,240.542969 L152.695313,222.9375 L116.5,222.9375 L116.5,193.117188 C130.729431,193.221258 141.399688,192.232829 148.51077,190.151899 C158.099082,187.346053 193.164422,173.134206 208.484375,150.09033 C217.913843,135.906769 222.81757,125.31803 224.546929,108.525882 C227.230256,82.4706751 228.257582,53.7055649 227.628906,22.2305516 L208.484375,22.2305516 C207.821975,67.0318283 207.198944,93.5148736 206.615283,101.679688 C205.840127,112.523329 204.508429,124.526268 196.390391,137.228052 C190.978366,145.695908 182.514902,154.085374 171,162.396448 C160.648742,168.350848 150.883849,172.194057 141.705321,173.926076 C132.526793,175.658095 124.291686,176.418304 117,176.206703 L116.5,157.371094 C126.836852,156.910318 135.238626,155.189454 141.705321,152.208501 C147.108378,149.717854 160.015551,145.900118 168.03973,137.228052 C180,124.302087 187.664137,109.26897 188.53125,96.6803256 C189.037339,89.3329905 189.037339,64.5163992 188.53125,22.2305516 L171.819503,22.2305516 L171.819503,94.328125 C171.819503,102.703468 169.495036,110.800737 164.846101,118.619932 C154.896936,135.353757 143.232623,136.905807 137,139.913152 C132.844918,141.918048 126.178252,142.937113 117,142.970344 L116.5,122.5 C128.173339,121.398376 137.673339,118.652101 145,114.261174 C152.326661,109.870246 155.615227,102.619306 154.865697,92.5083533 L154.865697,22.2305516 L137.683594,22.2305516 C137.683594,65.9518505 137.455729,89.3777844 137,92.5083533 C136.316406,97.2042065 137.777568,103.013009 131.854033,106.89114 C129.486657,108.441058 124.368646,108.985972 116.5,108.525882 L116.5,22.2305516 L103.485838,22.2305516 L103.485838,108.525882 C98.1205409,108.525882 93.7143077,107.980968 90.2671384,106.89114 C85.1073344,105.25986 83.292082,97.1057404 83.292082,92.5083533 C83.292082,89.4434285 83.292082,66.0174946 83.292082,22.2305516 L66.0664063,22.2305516 C65.9778646,55.2596001 65.9557292,76.2091866 66,85.0793108 C66.0664063,98.3844973 65.913245,106.635985 73.4907713,114.261174 C78.5424554,119.344632 88.540811,122.090908 103.485838,122.5 L103.485838,142.970344 C91.5257145,141.433446 84.7944625,140.414382 83.292082,139.913152 C65.7834794,134.07186 60.3543281,130.738826 56.367909,122.5 C52.3814898,114.261174 49,102.624265 49,92.5083533 C49,82.4466981 48.7724225,59.0207642 48.3172675,22.2305516 L33.3090568,22.2305516 C33.3090568,76.5197437 33.3090568,104.73994 33.3090568,106.89114 C33.3090568,118.918614 44.0088377,133.48378 48.3172675,137.228052 C54.8333392,142.890891 71.977813,151.026178 75.1451971,152.208501 C80.406857,154.172577 89.8537373,155.893441 103.485838,157.371094 L103.485838,176.206703 C83.5080309,176.595621 69.8722777,174.343382 62.5785785,169.449986 C40.9872983,154.964237 33.4315166,146.668422 25.5174505,135.336638 C21.7738765,129.976388 17.6651513,119.48703 17.6651513,114.261174 C17.6651513,103.412155 17.6651513,72.735281 17.6651513,22.2305516 L0.072821384,22.2305516 Z"></path>
</g>
<defs>
<linearGradient id="gradient-icon-religious" x1="60.892" y1="6.9244" x2="188.686" y2="43.4983" gradientUnits="userSpaceOnUse">
<stop offset="0" stop-color="#FFC341"/>
<stop offset="0.963542" stop-color="#FFD701"/>
</linearGradient>
</defs>
</svg>
