<svg width="26" height="26" viewBox="0 0 26 26" fill="none" xmlns="http://www.w3.org/2000/svg">
<path fill-rule="evenodd" clip-rule="evenodd" d="M0.199951 20.4811V5.51926C0.199951 2.5816 2.58136 0.200195 5.51901 0.200195H20.4809C23.4185 0.200195 25.8 2.5816 25.8 5.51926V20.4811C25.8 23.4188 23.4185 25.8002 20.4809 25.8002H5.51901C2.58136 25.8002 0.199951 23.4188 0.199951 20.4811ZM5.74651 10.2885C3.56792 16.6027 9.39745 22.4322 15.7117 20.2536C17.84 19.5196 19.5193 17.8402 20.2534 15.7121C22.432 9.3977 16.6025 3.56816 10.2881 5.74676C8.15995 6.48082 6.48058 8.16035 5.74651 10.2885ZM21 5.80016C21.8836 5.80016 22.6 5.08382 22.6 4.20016C22.6 3.31651 21.8836 2.60016 21 2.60016C20.1163 2.60016 19.4 3.31651 19.4 4.20016C19.4 5.08382 20.1163 5.80016 21 5.80016Z" fill="black"/>
</svg>
