<svg width="20" height="20" viewBox="0 0 20 20" fill="none" xmlns="http://www.w3.org/2000/svg">
<path fill-rule="evenodd" clip-rule="evenodd" d="M0.399902 15.6106V4.3892C0.399902 2.18596 2.18596 0.399902 4.3892 0.399902H15.6106C17.8138 0.399902 19.5999 2.18596 19.5999 4.3892V15.6106C19.5999 17.8138 17.8138 19.5999 15.6106 19.5999H4.3892C2.18596 19.5999 0.399902 17.8138 0.399902 15.6106ZM4.55982 7.96611C2.92588 12.7018 7.29803 17.0739 12.0337 15.44C13.6299 14.8894 14.8894 13.6299 15.44 12.0338C17.0739 7.29803 12.7018 2.92588 7.966 4.55982C6.3699 5.11037 5.11037 6.37002 4.55982 7.96611ZM15.9999 4.59993C16.6626 4.59993 17.1999 4.06268 17.1999 3.39993C17.1999 2.73719 16.6626 2.19993 15.9999 2.19993C15.3372 2.19993 14.7999 2.73719 14.7999 3.39993C14.7999 4.06268 15.3372 4.59993 15.9999 4.59993Z" fill="white"/>
</svg>
